<svg width="320" height="320" viewBox="0 0 320 320" fill="none" xmlns="http://www.w3.org/2000/svg">
<g id="dappland-logo">
<rect width="320" height="320" fill="black"/>
<g id="Group 58">
<path id="Subtract" d="M120.032 120.383L165.551 244.749C167.74 250.73 172.536 254.224 177.771 255.232H143.351C137.639 255.232 132.534 251.663 130.573 246.297L83.8476 118.46C78.4401 103.665 86.5588 88 102.311 88H132.239C127.118 89.8289 123.204 93.7025 120.87 98.3793C117.665 104.798 117.274 112.848 120.032 120.383Z" fill="url(#paint0_linear_1297_2)"/>
<g id="Group 57">
<mask id="mask0_1297_2" style="mask-type:alpha" maskUnits="userSpaceOnUse" x="72" y="93" width="138" height="167">
<rect id="Rectangle 73" x="72.1465" y="93.6688" width="137.187" height="165.531" fill="url(#paint1_linear_1297_2)"/>
</mask>
<g mask="url(#mask0_1297_2)">
<g id="Subtract_2" filter="url(#filter0_f_1297_2)">
<path d="M120.032 120.383L165.551 244.749C167.74 250.73 172.536 254.224 177.771 255.232H143.351C137.639 255.232 132.534 251.663 130.573 246.297L83.8476 118.46C78.4401 103.665 86.5588 88 102.311 88H132.239C127.118 89.8289 123.204 93.7025 120.87 98.3793C117.665 104.798 117.274 112.848 120.032 120.383Z" fill="url(#paint2_linear_1297_2)"/>
</g>
</g>
</g>
<g id="Polygon 17">
<path d="M190.039 242.411C186.952 250.844 175.026 250.844 171.939 242.411L126.419 118.044C122.087 106.207 128.015 93.6688 138.92 93.6688L223.059 93.6688C233.963 93.6688 239.891 106.207 235.559 118.044L190.039 242.411Z" fill="url(#paint3_linear_1297_2)"/>
<path d="M190.039 242.411C186.952 250.844 175.026 250.844 171.939 242.411L126.419 118.044C122.087 106.207 128.015 93.6688 138.92 93.6688L223.059 93.6688C233.963 93.6688 239.891 106.207 235.559 118.044L190.039 242.411Z" fill="url(#paint4_radial_1297_2)"/>
<path d="M190.039 242.411C186.952 250.844 175.026 250.844 171.939 242.411L126.419 118.044C122.087 106.207 128.015 93.6688 138.92 93.6688L223.059 93.6688C233.963 93.6688 239.891 106.207 235.559 118.044L190.039 242.411Z" fill="url(#paint5_radial_1297_2)"/>
<path d="M190.039 242.411C186.952 250.844 175.026 250.844 171.939 242.411L126.419 118.044C122.087 106.207 128.015 93.6688 138.92 93.6688L223.059 93.6688C233.963 93.6688 239.891 106.207 235.559 118.044L190.039 242.411Z" fill="url(#paint6_radial_1297_2)"/>
<path d="M190.039 242.411C186.952 250.844 175.026 250.844 171.939 242.411L126.419 118.044C122.087 106.207 128.015 93.6688 138.92 93.6688L223.059 93.6688C233.963 93.6688 239.891 106.207 235.559 118.044L190.039 242.411Z" fill="url(#paint7_linear_1297_2)" fill-opacity="0.8"/>
</g>
<path id="Polygon 19 (Stroke)" fill-rule="evenodd" clip-rule="evenodd" d="M170.342 242.995L124.822 118.629C122.508 112.306 122.905 105.724 125.434 100.658C127.978 95.5619 132.723 91.9683 138.919 91.9683L223.059 91.9683C229.255 91.9683 234 95.5619 236.544 100.658C239.073 105.723 239.47 112.306 237.156 118.629L191.636 242.995C188.005 252.916 173.973 252.916 170.342 242.995ZM171.939 242.411C175.026 250.844 186.952 250.844 190.039 242.411L235.559 118.044C239.891 106.207 233.963 93.6689 223.059 93.6689L138.919 93.6689C128.015 93.6689 122.087 106.207 126.419 118.044L171.939 242.411Z" fill="url(#paint8_linear_1297_2)"/>
<g id="Polygon 20" filter="url(#filter1_f_1297_2)">
<path d="M190.039 242.411C186.952 250.844 175.026 250.844 171.939 242.411L126.419 118.044C122.087 106.207 128.015 93.6688 138.92 93.6688L223.059 93.6688C233.963 93.6688 239.891 106.207 235.559 118.044L190.039 242.411Z" fill="url(#paint9_radial_1297_2)"/>
</g>
</g>
</g>
<defs>
<filter id="filter0_f_1297_2" x="65.736" y="71.5603" width="128.475" height="200.111" filterUnits="userSpaceOnUse" color-interpolation-filters="sRGB">
<feFlood flood-opacity="0" result="BackgroundImageFix"/>
<feBlend mode="normal" in="SourceGraphic" in2="BackgroundImageFix" result="shape"/>
<feGaussianBlur stdDeviation="8.21987" result="effect1_foregroundBlur_1297_2"/>
</filter>
<filter id="filter1_f_1297_2" x="108.553" y="77.2291" width="144.871" height="187.946" filterUnits="userSpaceOnUse" color-interpolation-filters="sRGB">
<feFlood flood-opacity="0" result="BackgroundImageFix"/>
<feBlend mode="normal" in="SourceGraphic" in2="BackgroundImageFix" result="shape"/>
<feGaussianBlur stdDeviation="8.21987" result="effect1_foregroundBlur_1297_2"/>
</filter>
<linearGradient id="paint0_linear_1297_2" x1="129.974" y1="88" x2="129.974" y2="255.232" gradientUnits="userSpaceOnUse">
<stop offset="0.0214678" stop-color="#C8C8C8" stop-opacity="0"/>
<stop offset="0.0256676" stop-color="#C8C8C8"/>
<stop offset="0.0693822" stop-color="#C9C9C9" stop-opacity="0.927973"/>
<stop offset="0.111865" stop-color="#CBCBCB" stop-opacity="0.42"/>
<stop offset="0.142556" stop-color="#CBCBCB" stop-opacity="0.2"/>
<stop offset="0.171366" stop-color="#1FADD5"/>
<stop offset="0.185193" stop-color="#B2ECFD" stop-opacity="0.938703"/>
<stop offset="0.959939" stop-color="white"/>
<stop offset="0.969541" stop-color="#D9D9D9" stop-opacity="0"/>
</linearGradient>
<linearGradient id="paint1_linear_1297_2" x1="140.74" y1="93.6688" x2="140.74" y2="259.2" gradientUnits="userSpaceOnUse">
<stop offset="0.173679" stop-color="#D9D9D9" stop-opacity="0"/>
<stop offset="0.811109" stop-color="#D9D9D9"/>
</linearGradient>
<linearGradient id="paint2_linear_1297_2" x1="129.974" y1="88" x2="129.974" y2="255.232" gradientUnits="userSpaceOnUse">
<stop offset="0.0214678" stop-color="#C8C8C8" stop-opacity="0"/>
<stop offset="0.0256676" stop-color="#C8C8C8"/>
<stop offset="0.0693822" stop-color="#C9C9C9" stop-opacity="0.927973"/>
<stop offset="0.111865" stop-color="#CBCBCB" stop-opacity="0.42"/>
<stop offset="0.142556" stop-color="#CBCBCB" stop-opacity="0.2"/>
<stop offset="0.171366" stop-color="#1FADD5"/>
<stop offset="0.185193" stop-color="#B2ECFD" stop-opacity="0.938703"/>
<stop offset="0.959939" stop-color="white"/>
<stop offset="0.969541" stop-color="#D9D9D9" stop-opacity="0"/>
</linearGradient>
<linearGradient id="paint3_linear_1297_2" x1="191.476" y1="149.791" x2="131.386" y2="97.9205" gradientUnits="userSpaceOnUse">
<stop stop-color="#E7CC38"/>
<stop offset="1" stop-color="#E7CC38" stop-opacity="0"/>
</linearGradient>
<radialGradient id="paint4_radial_1297_2" cx="0" cy="0" r="1" gradientUnits="userSpaceOnUse" gradientTransform="translate(155.479 93.6688) rotate(75.277) scale(80.3002 80.3002)">
<stop stop-color="#5DAF3D"/>
<stop offset="1" stop-color="#C7E606" stop-opacity="0"/>
</radialGradient>
<radialGradient id="paint5_radial_1297_2" cx="0" cy="0" r="1" gradientUnits="userSpaceOnUse" gradientTransform="translate(148.109 176.151) rotate(70.0452) scale(294.009 90.678)">
<stop offset="0.0505218" stop-color="#D55401"/>
<stop offset="0.651601" stop-color="#E7CC38" stop-opacity="0"/>
</radialGradient>
<radialGradient id="paint6_radial_1297_2" cx="0" cy="0" r="1" gradientUnits="userSpaceOnUse" gradientTransform="translate(217.836 93.6688) rotate(99.6503) scale(71.0155 71.0155)">
<stop stop-color="#62FAD2"/>
<stop offset="1" stop-color="#62FA83" stop-opacity="0"/>
</radialGradient>
<linearGradient id="paint7_linear_1297_2" x1="216.986" y1="179.552" x2="157.18" y2="158.011" gradientUnits="userSpaceOnUse">
<stop stop-color="white"/>
<stop offset="0.46419" stop-color="white" stop-opacity="0.41"/>
<stop offset="1" stop-color="white" stop-opacity="0"/>
</linearGradient>
<linearGradient id="paint8_linear_1297_2" x1="204.798" y1="178.985" x2="184.674" y2="171.332" gradientUnits="userSpaceOnUse">
<stop stop-color="white"/>
<stop offset="1" stop-color="white" stop-opacity="0"/>
</linearGradient>
<radialGradient id="paint9_radial_1297_2" cx="0" cy="0" r="1" gradientUnits="userSpaceOnUse" gradientTransform="translate(161.715 154.326) rotate(105.771) scale(102.202 65.6922)">
<stop offset="0.890927" stop-color="white" stop-opacity="0"/>
<stop offset="1" stop-color="white"/>
</radialGradient>
</defs>
</svg>
